<svg xmlns="http://www.w3.org/2000/svg" width="148" height="26" fill="none"><g fill="currentColor"><path d="M40.566 4.711a.347.347 0 0 0-.334.34V24.478a.339.339 0 0 1-.34.33h-2.786a.34.34 0 0 1-.34-.34V1.728c0-.193.153-.346.34-.346h3.715c1.483 0 2.684.102 3.601.305.929.21 1.744.555 2.469 1.042.85.584 1.523 1.393 2.033 2.424.47.963.708 2.004.708 3.097 0 3.856-3.466 5.538-4.128 6.206-.42.42-.153.799-.057.923l6.11 8.868c.04.05.073.124.073.21a.344.344 0 0 1-.34.339h-.005l-3.33-.006c-.005.006-.017.006-.022.006a.343.343 0 0 1-.289-.159l-6.24-8.946a1.92 1.92 0 0 1-.255-.957c0-.663.312-1.257.793-1.654.996-.815 4.405-2.355 4.32-4.79-.045-1.212-.447-2.14-1.353-2.775-.764-.543-1.914-.81-3.443-.81h-.9v.006ZM57.134 1.365h-2.803a.337.337 0 0 0-.34.34v22.768c0 .187.154.34.34.34h2.803a.34.34 0 0 0 .34-.34V1.704a.337.337 0 0 0-.34-.34ZM85.373 24.4c0-.012 0-.023-.006-.029L80.77.391h-.005a.464.464 0 0 0-.465-.385c-.21 0-.39.147-.447.34l-6.846 16.658a.35.35 0 0 1-.317.21.352.352 0 0 1-.317-.22L65.532.34a.473.473 0 0 0-.917.045h-.006l-4.598 23.98c0 .006-.006.018-.006.029v.057c0 .18.142.328.317.334l.006.005 2.814.012h.023a.339.339 0 0 0 .345-.323l2.373-12.627a.33.33 0 0 1 .328-.272c.142 0 .26.09.312.21l5.713 13.821c.068.193.25.323.453.323.215 0 .396-.13.459-.317l5.719-13.84a.333.333 0 0 1 .311-.197c.17 0 .312.124.34.283l2.367 12.616a.329.329 0 0 0 .334.323h.034l2.814-.012.006-.005a.332.332 0 0 0 .323-.334c-.012-.012-.012-.034-.023-.051ZM99.875 5.074c-.787-1.597-2.01-2.684-3.67-3.24-.911-.31-2.423-.464-4.546-.464h-3.585a.342.342 0 0 0-.345.34v22.752c0 .187.153.334.345.334h2.792c.187 0 .34-.147.34-.34v-9.179h1.619c2.52 0 4.456-.662 5.81-1.993 1.342-1.308 2.01-2.961 2.01-4.971a7.291 7.291 0 0 0-.77-3.24Zm-3.834 6.002c-.742.628-1.93.945-3.59.945h-.957a.334.334 0 0 1-.34-.34V4.967c0-.187.148-.345.34-.345h.799c1.659 0 2.87.283 3.63.849.86.629 1.29 1.563 1.29 2.803-.005 1.189-.396 2.129-1.172 2.803ZM106.834 21.144c0 .187.147.34.34.34h6.806a.34.34 0 0 1 .334.34v2.655a.337.337 0 0 1-.345.334h-10.272a.344.344 0 0 1-.34-.334V1.704c0-.186.159-.34.34-.34h2.797a.34.34 0 0 1 .34.335v19.445ZM120.837 21.483h9.247c.187 0 .34.153.345.34v2.645c0 .186-.153.34-.345.34h-12.729a.34.34 0 0 1-.34-.34V1.704a.34.34 0 0 1 .34-.34h12.032a.343.343 0 0 1 .334.34v2.65a.34.34 0 0 1-.339.34c-.238 0-6.954-.006-8.551-.006a.34.34 0 0 0-.339.34v4.944c0 .18.153.34.334.34 1.325.022 6.172 0 6.172 0 .187 0 .34.147.345.333v2.645a.337.337 0 0 1-.345.334H120.826a.342.342 0 0 0-.34.345v7.158a.355.355 0 0 0 .351.356ZM136.941 4.756a.34.34 0 0 0-.334.34v19.405c0 .006.006.012.006.017l-.006.006a.343.343 0 0 1-.334.334h-2.792a.346.346 0 0 1-.345-.34V1.767c0-.187.153-.334.345-.334h3.715c1.484 0 2.684.102 3.607.305.923.204 1.744.55 2.463 1.042.85.59 1.529 1.393 2.039 2.418.47.968.707 2.01.707 3.098 0 3.861-3.459 5.537-4.139 6.217-.413.413-.141.787-.051.917l6.11 8.868c.04.056.068.13.068.215a.34.34 0 0 1-.334.34h-3.358a.34.34 0 0 1-.289-.17l-6.251-8.958a1.942 1.942 0 0 1-.255-.957c0-.663.312-1.252.793-1.648 1.002-.821 4.405-2.356 4.32-4.785-.045-1.212-.453-2.146-1.353-2.78-.764-.544-1.908-.81-3.431-.81h-.901v.011ZM15.289 7.016c-1.297-2.378-3.21-4.043-5.736-5-1.422-.532-3.364-.799-5.838-.799H.362A.363.363 0 0 0 0 1.585v22.752c0 .21.159.368.362.368h3.29c2.033 0 3.664-.152 4.87-.475 1.206-.329 2.4-.918 3.573-1.773 3.075-2.265 4.615-5.43 4.615-9.507 0-2.208-.464-4.19-1.421-5.934Zm-2.854 9.7a7.699 7.699 0 0 1-2.367 2.978 7.64 7.64 0 0 1-2.622 1.302c-.94.26-2.112.386-3.51.386h.147a.593.593 0 0 1-.595-.59V5.148c0-.328.266-.594.595-.594h-.148c1.897 0 3.46.26 4.678.787 1.228.52 2.248 1.364 3.057 2.52 1.025 1.483 1.54 3.182 1.54 5.118.006 1.354-.254 2.6-.775 3.738ZM22.808 10.69v-.6a.365.365 0 0 0-.362-.362h-2.69a.361.361 0 0 0-.362.363v14.32c0 .198.159.357.362.357h2.69a.36.36 0 0 0 .362-.357v-8.958a2.794 2.794 0 0 1 2.792-2.758c.793 0 1.495.334 2.005.861.056.062.141.09.238.09a.346.346 0 0 0 .17-.045l2.236-1.489a.325.325 0 0 0 .142-.266.288.288 0 0 0-.057-.181c-.946-1.427-2.384-2.333-3.986-2.333-1.24 0-2.401.538-3.279 1.466a.151.151 0 0 1-.113.051.17.17 0 0 1-.148-.158ZM31.002 22.627c0 1.2-.974 2.18-2.174 2.18a2.179 2.179 0 0 1-2.169-2.18c0-1.189.974-2.168 2.169-2.168 1.2 0 2.174.98 2.174 2.168Z"/></g></svg>