<?xml version="1.0" encoding="UTF-8" standalone="no"?>
<!-- Created with Inkscape (http://www.inkscape.org/) -->

<svg
   xmlns:dc="http://purl.org/dc/elements/1.1/"
   xmlns:cc="http://creativecommons.org/ns#"
   xmlns:rdf="http://www.w3.org/1999/02/22-rdf-syntax-ns#"
   xmlns:svg="http://www.w3.org/2000/svg"
   xmlns="http://www.w3.org/2000/svg"
   xmlns:sodipodi="http://sodipodi.sourceforge.net/DTD/sodipodi-0.dtd"
   xmlns:inkscape="http://www.inkscape.org/namespaces/inkscape"
   width="259.87"
   height="86.480003"
   id="svg4301"
   version="1.1"
   inkscape:version="0.48.1 "
   sodipodi:docname="Neues Dokument 3">
  <defs
     id="defs4303">
    <clipPath
       clipPathUnits="userSpaceOnUse"
       id="clipPath16">
      <path
         inkscape:connector-curvature="0"
         d="m 70.844,489.18 210.758,0 0,75.596 -210.758,0 0,-75.596 z"
         id="path18" />
    </clipPath>
  </defs>
  <sodipodi:namedview
     id="base"
     pagecolor="#ffffff"
     bordercolor="#666666"
     borderopacity="1.0"
     inkscape:pageopacity="0.0"
     inkscape:pageshadow="2"
     inkscape:zoom="3.2661654"
     inkscape:cx="130.77517"
     inkscape:cy="44.098604"
     inkscape:document-units="px"
     inkscape:current-layer="layer1"
     showgrid="false"
     fit-margin-top="0"
     fit-margin-left="0"
     fit-margin-right="0"
     fit-margin-bottom="0"
     inkscape:window-width="1024"
     inkscape:window-height="678"
     inkscape:window-x="-4"
     inkscape:window-y="-4"
     inkscape:window-maximized="1" />
  <metadata
     id="metadata4306">
    <rdf:RDF>
      <cc:Work
         rdf:about="">
        <dc:format>image/svg+xml</dc:format>
        <dc:type
           rdf:resource="http://purl.org/dc/dcmitype/StillImage" />
        <dc:title></dc:title>
      </cc:Work>
    </rdf:RDF>
  </metadata>
  <g
     inkscape:label="Ebene 1"
     inkscape:groupmode="layer"
     id="layer1"
     transform="translate(-64.185723,-410.5116)">
    <g
       transform="matrix(1.25,0,0,-1.25,-25.158404,1110.0004)"
       id="g12">
      <g
         id="g14"
         clip-path="url(#clipPath16)">
        <g
           id="g20"
           transform="translate(144.4915,545.6185)">
          <path
             inkscape:connector-curvature="0"
             d="m 0,0 c 1.404,-0.297 4.292,-0.922 7.367,-3.784 2.76,-2.569 6.662,-8.01 6.662,-8.01 0,0 4.952,12.475 11.372,11.742 6.419,-0.733 10.302,-12.151 10.302,-12.151 0,0 3.12,4.95 8.744,10.719 3.61,3.703 14.985,13.017 24.84,13.683 3.773,0.255 3.462,-1.888 0.866,-3.098 C 60.658,4.679 46.145,-6.341 37.772,-24.581 27.124,-47.78 26.17,-54.84 23.945,-54.393 c -2.362,0.474 -1.351,5.1 0.769,15.306 2.02,9.719 3.098,19.246 2.436,23.545 -0.663,4.299 -1.865,5.758 -2.919,5.758 -1.626,0 -3.536,-2.756 -5.398,-9.264 -1.862,-6.509 -1.962,-12.583 -2.498,-17.24 -0.59,-5.123 -1.005,-7.73 -2.426,-7.73 -1.421,0 -2.118,4.034 -2.867,10.129 -0.765,6.224 -1.591,11.498 -4.136,17.296 C 4.66,-11.479 0.975,-7.559 -3.302,-2.482 -6.108,0.847 -1.02,0.216 0,0"
             style="fill:#000000;fill-opacity:1;fill-rule:nonzero;stroke:none"
             id="path22" />
        </g>
        <g
           id="g24"
           transform="translate(182.5307,497.0673)">
          <path
             inkscape:connector-curvature="0"
             d="m 0,0 c 2.006,0 3.632,1.617 3.632,3.611 0,1.994 -1.626,3.61 -3.632,3.61 -2.006,0 -3.631,-1.616 -3.631,-3.61 C -3.631,1.617 -2.006,0 0,0"
             style="fill:#000000;fill-opacity:1;fill-rule:nonzero;stroke:none"
             id="path26" />
        </g>
        <g
           id="g28"
           transform="translate(143.7286,546.5724)">
          <path
             inkscape:connector-curvature="0"
             d="m 0,0 c 1.404,-0.297 4.292,-1.303 7.367,-4.166 2.76,-2.569 5.898,-8.009 5.898,-8.009 0,0 5.716,12.474 12.135,11.741 6.42,-0.733 9.54,-12.15 9.54,-12.15 0,0 3.883,5.331 9.507,11.1 3.61,3.703 14.985,13.017 24.84,13.683 3.773,0.255 3.462,-1.889 0.866,-3.098 C 60.658,4.679 46.144,-6.341 37.772,-24.582 27.124,-47.78 26.17,-54.84 23.945,-54.393 c -2.362,0.474 -1.351,5.1 0.769,15.306 2.019,9.719 3.098,19.246 2.435,23.545 -0.662,4.299 -1.864,5.758 -2.918,5.758 -1.626,0 -3.536,-2.756 -5.398,-9.265 -1.862,-6.509 -1.962,-12.582 -2.498,-17.239 -0.591,-5.123 -1.005,-7.731 -2.426,-7.731 -1.421,0 -2.118,4.035 -2.867,10.13 -0.765,6.224 -1.591,11.498 -4.137,17.296 -2.245,5.114 -5.93,9.034 -10.208,14.11 C -6.108,0.847 -1.021,0.216 0,0"
             style="fill:#6ab023;fill-opacity:1;fill-rule:nonzero;stroke:none"
             id="path30" />
        </g>
        <g
           id="g32"
           transform="translate(181.7678,498.0214)">
          <path
             inkscape:connector-curvature="0"
             d="m 0,0 c 2.006,0 3.631,1.616 3.631,3.611 0,1.994 -1.625,3.61 -3.631,3.61 -2.006,0 -3.632,-1.616 -3.632,-3.61 C -3.632,1.616 -2.006,0 0,0"
             style="fill:#6ab023;fill-opacity:1;fill-rule:nonzero;stroke:none"
             id="path34" />
        </g>
        <g
           id="g36"
           transform="translate(194.0849,495.5588)">
          <path
             inkscape:connector-curvature="0"
             d="M 0,0 1.154,5.226 C 1.442,6.452 1.64,7.605 1.856,8.975 l 0.036,0 C 2.037,7.587 2.235,6.452 2.469,5.226 L 3.496,0 6.47,0 9.606,12.147 6.812,12.147 5.821,7.173 C 5.569,5.731 5.299,4.307 5.118,2.956 l -0.036,0 C 4.902,4.307 4.704,5.605 4.433,7.029 l -0.973,5.118 -2.919,0 -1.027,-4.974 C -0.793,5.677 -1.081,4.217 -1.28,2.902 l -0.036,0 c -0.198,1.225 -0.45,2.793 -0.721,4.253 l -0.919,4.992 -2.937,0 L -3.01,0 0,0 z m 18.509,3.532 c 0.036,0.198 0.09,0.613 0.09,1.082 0,2.18 -1.082,4.397 -3.929,4.397 -3.064,0 -4.452,-2.469 -4.452,-4.704 0,-2.757 1.713,-4.505 4.704,-4.505 1.19,0 2.289,0.198 3.19,0.559 l -0.36,1.856 C 17.013,1.982 16.256,1.856 15.319,1.856 c -1.28,0 -2.397,0.541 -2.487,1.676 l 5.677,0 z m -5.695,1.875 c 0.072,0.739 0.54,1.784 1.694,1.784 1.261,0 1.55,-1.118 1.55,-1.784 l -3.244,0 z m 13.769,7.389 0,-4.776 -0.037,0 c -0.396,0.613 -1.243,0.991 -2.324,0.991 -2.109,0 -3.965,-1.712 -3.947,-4.686 0,-2.739 1.676,-4.523 3.766,-4.523 1.136,0 2.199,0.504 2.758,1.496 l 0.036,0 L 26.961,0 29.394,0 c -0.036,0.595 -0.072,1.64 -0.072,2.631 l 0,10.165 -2.739,0 z m 0,-8.867 c 0,-0.234 -0.019,-0.433 -0.073,-0.631 -0.162,-0.775 -0.792,-1.316 -1.586,-1.316 -1.135,0 -1.874,0.938 -1.874,2.433 0,1.388 0.649,2.506 1.893,2.506 0.847,0 1.441,-0.613 1.603,-1.352 0.018,-0.144 0.037,-0.343 0.037,-0.487 l 0,-1.153 z M 39.847,3.532 c 0.036,0.198 0.09,0.613 0.09,1.082 0,2.18 -1.082,4.397 -3.929,4.397 -3.064,0 -4.452,-2.469 -4.452,-4.704 0,-2.757 1.713,-4.505 4.704,-4.505 1.19,0 2.289,0.198 3.19,0.559 L 39.09,2.217 C 38.351,1.982 37.594,1.856 36.657,1.856 c -1.28,0 -2.397,0.541 -2.487,1.676 l 5.677,0 z m -5.695,1.875 c 0.072,0.739 0.54,1.784 1.694,1.784 1.261,0 1.55,-1.118 1.55,-1.784 l -3.244,0 z M 42.117,0 l 2.668,0 0,5.136 c 0,0.216 0.018,0.469 0.108,0.685 0.162,0.451 0.577,0.991 1.28,0.991 0.865,0 1.261,-0.757 1.261,-1.874 l 0,-4.938 2.667,0 0,5.154 c 0,0.216 0.036,0.505 0.108,0.703 0.181,0.523 0.631,0.955 1.262,0.955 0.883,0 1.297,-0.739 1.297,-2.018 l 0,-4.794 2.668,0 0,5.19 c 0,2.632 -1.28,3.821 -2.974,3.821 -0.649,0 -1.189,-0.144 -1.676,-0.432 C 50.372,8.326 49.975,7.984 49.651,7.515 l -0.036,0 c -0.379,0.919 -1.28,1.496 -2.415,1.496 -1.514,0 -2.289,-0.829 -2.667,-1.388 l -0.055,0 -0.126,1.19 -2.307,0 C 42.081,8.038 42.117,7.101 42.117,6.001 L 42.117,0 z M 65.51,5.208 c 0,2.073 -0.937,3.803 -3.875,3.803 -1.604,0 -2.811,-0.432 -3.424,-0.775 L 58.716,6.47 c 0.576,0.36 1.531,0.667 2.433,0.667 1.351,0 1.604,-0.667 1.604,-1.136 l 0,-0.126 C 59.635,5.893 57.58,4.794 57.58,2.505 c 0,-1.406 1.063,-2.703 2.848,-2.703 1.045,0 1.946,0.378 2.523,1.081 l 0.054,0 L 63.167,0 65.636,0 C 65.546,0.487 65.51,1.298 65.51,2.145 l 0,3.063 z m -2.668,-2 C 62.842,3.046 62.825,2.884 62.789,2.739 62.608,2.181 62.05,1.73 61.365,1.73 c -0.613,0 -1.082,0.342 -1.082,1.045 0,1.064 1.118,1.406 2.559,1.388 l 0,-0.955 z M 68.213,0 l 2.74,0 0,4.469 c 0,0.217 0.017,0.433 0.054,0.613 0.18,0.847 0.865,1.388 1.874,1.388 0.306,0 0.541,-0.036 0.739,-0.09 l 0,2.595 c -0.198,0.036 -0.325,0.036 -0.577,0.036 -0.847,0 -1.928,-0.541 -2.379,-1.82 l -0.072,0 -0.09,1.622 -2.361,0 c 0.036,-0.757 0.072,-1.604 0.072,-2.902 l 0,-5.911 z m 10.075,12.796 -2.74,0 0,-12.796 2.74,0 0,2.757 0.702,0.865 2.127,-3.622 3.37,0 -3.604,5.245 3.153,3.568 -3.298,0 -1.784,-2.649 C 78.738,5.821 78.522,5.461 78.324,5.1 l -0.036,0 0,7.696 z"
             style="fill:#000000;fill-opacity:1;fill-rule:nonzero;stroke:none"
             id="path38" />
        </g>
        <g
           id="g40"
           transform="translate(82.2407,501.9385)">
          <path
             inkscape:connector-curvature="0"
             d="m 0,0 -4.001,0 0,-1.262 2.469,0 0,-3.622 c -0.36,-0.18 -1.063,-0.324 -2.09,-0.324 -2.83,0 -4.686,1.82 -4.686,4.902 0,3.045 1.928,4.884 4.884,4.884 1.225,0 2.036,-0.235 2.685,-0.523 l 0.379,1.28 c -0.523,0.252 -1.622,0.558 -3.028,0.558 -4.073,0 -6.56,-2.649 -6.578,-6.272 0,-1.892 0.649,-3.514 1.694,-4.523 1.189,-1.135 2.703,-1.604 4.541,-1.604 1.64,0 3.028,0.415 3.731,0.667 L 0,0 z m 9.984,-2.307 c 0.018,0.162 0.054,0.415 0.054,0.739 0,1.604 -0.757,4.109 -3.604,4.109 -2.541,0 -4.091,-2.072 -4.091,-4.704 0,-2.631 1.604,-4.415 4.289,-4.415 1.388,0 2.343,0.306 2.902,0.559 l -0.271,1.135 c -0.595,-0.252 -1.28,-0.45 -2.415,-0.45 -1.586,0 -2.955,0.883 -2.992,3.027 l 6.128,0 z m -6.109,1.136 c 0.126,1.099 0.828,2.577 2.432,2.577 1.785,0 2.217,-1.568 2.199,-2.577 l -4.631,0 z m 8.668,-5.209 1.55,0 0,5.263 c 0,0.27 0.036,0.54 0.126,0.775 0.252,0.793 0.973,1.585 1.965,1.585 1.207,0 1.82,-1.009 1.82,-2.396 l 0,-5.227 1.549,0 0,5.389 c 0,0.288 0.055,0.577 0.127,0.793 0.27,0.775 0.973,1.441 1.874,1.441 1.28,0 1.892,-1.009 1.892,-2.685 l 0,-4.938 1.55,0 0,5.137 c 0,3.027 -1.712,3.784 -2.865,3.784 -0.829,0 -1.406,-0.216 -1.929,-0.613 C 19.842,1.658 19.5,1.28 19.229,0.793 l -0.036,0 c -0.378,1.027 -1.28,1.748 -2.469,1.748 -1.442,0 -2.253,-0.775 -2.739,-1.604 l -0.054,0 -0.072,1.406 -1.388,0 c 0.054,-0.721 0.072,-1.46 0.072,-2.361 l 0,-6.362 z m 22.582,4.073 c 0.018,0.162 0.054,0.415 0.054,0.739 0,1.604 -0.757,4.109 -3.605,4.109 -2.541,0 -4.091,-2.072 -4.091,-4.704 0,-2.631 1.604,-4.415 4.29,-4.415 1.387,0 2.343,0.306 2.901,0.559 l -0.27,1.135 c -0.595,-0.252 -1.28,-0.45 -2.415,-0.45 -1.586,0 -2.956,0.883 -2.992,3.027 l 6.128,0 z m -6.11,1.136 c 0.126,1.099 0.829,2.577 2.433,2.577 1.784,0 2.217,-1.568 2.199,-2.577 l -4.632,0 z m 10.255,3.514 -1.586,0 0,-8.723 1.586,0 0,8.723 z m -0.793,3.442 c -0.577,0 -0.992,-0.432 -0.992,-0.991 0,-0.541 0.397,-0.973 0.956,-0.973 0.63,0 1.027,0.432 1.009,0.973 0,0.559 -0.379,0.991 -0.973,0.991 m 3.964,-12.165 1.586,0 0,5.245 c 0,0.27 0.036,0.54 0.108,0.739 0.271,0.883 1.082,1.622 2.127,1.622 1.496,0 2.019,-1.172 2.019,-2.578 l 0,-5.028 1.585,0 0,5.209 c 0,2.991 -1.874,3.712 -3.081,3.712 -1.442,0 -2.451,-0.811 -2.884,-1.64 l -0.036,0 -0.09,1.442 -1.406,0 c 0.054,-0.721 0.072,-1.46 0.072,-2.361 l 0,-6.362 z m 16.49,12.796 0,-5.208 -0.036,0 c -0.396,0.702 -1.297,1.333 -2.631,1.333 -2.126,0 -3.929,-1.784 -3.911,-4.686 0,-2.649 1.622,-4.433 3.731,-4.433 1.424,0 2.487,0.739 2.974,1.712 l 0.036,0 0.072,-1.514 1.424,0 c -0.055,0.595 -0.073,1.478 -0.073,2.253 l 0,10.543 -1.586,0 z m 0,-9.137 c 0,-0.253 -0.018,-0.469 -0.072,-0.685 -0.288,-1.19 -1.261,-1.892 -2.325,-1.892 -1.711,0 -2.577,1.459 -2.577,3.226 0,1.928 0.973,3.37 2.613,3.37 1.19,0 2.055,-0.829 2.289,-1.839 0.054,-0.198 0.072,-0.468 0.072,-0.666 l 0,-1.514 z M 70.7,-2.307 c 0.018,0.162 0.054,0.415 0.054,0.739 0,1.604 -0.757,4.109 -3.604,4.109 -2.542,0 -4.092,-2.072 -4.092,-4.704 0,-2.631 1.604,-4.415 4.29,-4.415 1.388,0 2.343,0.306 2.901,0.559 l -0.27,1.135 c -0.595,-0.252 -1.28,-0.45 -2.415,-0.45 -1.586,0 -2.956,0.883 -2.992,3.027 l 6.128,0 z m -6.11,1.136 c 0.126,1.099 0.829,2.577 2.433,2.577 1.784,0 2.217,-1.568 2.199,-2.577 l -4.632,0 z"
             style="fill:#000000;fill-opacity:1;fill-rule:nonzero;stroke:none"
             id="path42" />
        </g>
      </g>
    </g>
  </g>
</svg>
