<?xml version="1.0" encoding="UTF-8" standalone="no"?><!DOCTYPE svg PUBLIC "-//W3C//DTD SVG 1.1//EN" "http://www.w3.org/Graphics/SVG/1.1/DTD/svg11.dtd"><svg width="100%" height="100%" viewBox="0 0 259 97" version="1.1" xmlns="http://www.w3.org/2000/svg" xmlns:xlink="http://www.w3.org/1999/xlink" xml:space="preserve" xmlns:serif="http://www.serif.com/" style="fill-rule:evenodd;clip-rule:evenodd;stroke-linejoin:round;stroke-miterlimit:2;"><g><clipPath id="_clip1"><path d="M-0.164,95.774l257.905,0l0,-95.865l-257.905,-0l-0,95.865Z" clip-rule="nonzero"/></clipPath><g clip-path="url(#_clip1)"><path d="M118.309,87.699l-2.714,-0.208l-1.244,-0.209l-1.253,-0.417l-1.043,-0.416l-1.036,-0.625l-2.087,-1.666l2.087,-2.083l1.662,1.457l1.67,1.043l1.87,0.416l2.088,0.208l1.453,-0.208l1.253,-0.209l1.252,-0.416l0.827,-0.625l0.835,-0.625l0.417,-0.833l0.418,-1.042l-0,-2.083l-0.209,-1.042l-0.418,-0.833l-0.626,-0.625l-0.626,-0.417l-0.827,-0.417l-2.087,-0.416l-3.123,-0.417l-1.662,-0.416l-1.253,-0.417l-1.252,-0.624l-0.835,-0.626l-1.035,-1.041l-0.627,-1.25l-0.417,-1.25l-0,-1.666l0.208,-1.667l0.418,-1.458l0.626,-1.25l1.036,-1.042l1.252,-1.041l1.462,-0.626l1.661,-0.416l2.088,-0.208l2.288,0.208l2.079,0.625l1.879,0.833l1.67,1.458l-1.67,1.875l-1.462,-1.042l-1.452,-0.833l-1.671,-0.417l-3.123,0l-1.252,0.209l-0.827,0.417l-0.835,0.624l-0.626,0.834l-0.626,0.833l-0.209,1.042l-0,1.875l0.209,0.833l0.417,0.834l0.418,0.624l0.835,0.417l0.826,0.416l2.088,0.626l2.914,0.416l1.67,0.417l1.453,0.417l1.044,0.416l0.835,0.625l1.044,1.042l0.618,1.249l0.417,1.458l0.209,1.667l-0.209,1.667l-0.417,1.667l-0.827,1.25l-1.044,1.041l-1.461,0.833l-1.453,0.833l-1.879,0.417l-2.079,-0Z" style="fill:#0061a1;fill-rule:nonzero;"/><path d="M140.805,87.491l-2.923,-0l-1.035,-0.417l-0.835,-0.416l-0.627,-0.626l-0.626,-0.833l-0.418,-0.833l-0.208,-0.834l-0,-12.707l-2.288,0l-0,-2.083l2.288,0l-0,-5.833l2.714,-0l-0,5.833l3.958,0l-0,2.083l-3.958,0l-0,11.458l0.208,1.249l0.418,0.834l0.827,0.625l1.043,0.208l1.462,0l-0,2.292Z" style="fill:#0061a1;fill-rule:nonzero;"/><path d="M146.633,63.326l0,-3.125l3.123,0l-0,3.125l-3.123,-0Zm0.209,24.165l-0,-18.749l2.705,0l0,18.749l-2.705,-0Z" style="fill:#0061a1;fill-rule:nonzero;"/><path d="M160.169,70.825l-0,16.666l-2.706,-0l0,-16.666l-2.496,0l-0,-2.083l2.496,0l0,-4.583l0.209,-0.833l0.418,-0.833l0.417,-0.834l0.835,-0.625l0.827,-0.417l0.835,-0.207l1.252,-0.209l1.871,0l-0,2.499l-2.497,0l-0.835,0.626l-0.418,0.833l-0.208,1.25l-0,3.333l3.958,0l-0,2.083l-3.958,0Z" style="fill:#0061a1;fill-rule:nonzero;"/><path d="M176.418,87.491l-3.123,-0l-1.043,-0.417l-0.835,-0.416l-0.618,-0.626l-0.835,-1.666l-0.209,-0.834l-0.209,-1.041l0,-11.666l-2.296,0l-0,-2.083l2.296,0l0,-5.833l2.914,-0l0,5.833l3.958,0l0,2.083l-3.958,0l0,12.707l0.627,0.834l0.626,0.625l1.244,0.208l1.461,0l0,2.292Z" style="fill:#0061a1;fill-rule:nonzero;"/><path d="M194.121,87.491l-0,-2.083l-1.044,1.041l-1.244,0.625l-1.461,0.417l-1.662,0.208l-1.461,-0l-1.253,-0.417l-1.035,-0.624l-1.044,-0.626l-0.835,-1.041l-0.626,-1.25l-0.418,-1.458l0,-13.541l2.714,0l-0,11.458l0.209,1.249l0.208,1.042l0.418,0.834l0.409,0.624l0.626,0.626l0.835,0.416l0.835,0.208l2.08,0l0.835,-0.208l0.835,-0.416l0.835,-0.626l0.409,-0.624l0.417,-0.834l0.209,-1.042l0.209,-1.249l-0,-11.458l2.705,0l0,18.749l-2.705,-0Z" style="fill:#0061a1;fill-rule:nonzero;"/><path d="M215.99,87.491l0,-12.708l-0.209,-1.042l-0.417,-0.833l-0.618,-0.624l-0.626,-0.626l-0.835,-0.416l-0.835,-0.208l-1.036,-0.209l-1.044,0.209l-0.835,0.208l-0.835,0.416l-0.626,0.626l-0.618,0.624l-0.209,0.833l-0.417,1.042l-0,12.708l-2.706,-0l0,-18.749l2.706,0l-0,2.083l1.035,-1.041l1.253,-0.833l1.461,-0.417l2.914,-0l1.253,0.417l1.244,0.624l0.835,0.626l1.044,1.041l0.417,1.25l0.418,1.458l0.209,1.458l-0,12.083l-2.923,-0Z" style="fill:#0061a1;fill-rule:nonzero;"/><path d="M233.701,96.032l-3.749,-0l-1.462,-0.417l-1.461,-0.833l-1.453,-1.25l1.871,-1.667l0.835,0.834l1.043,0.625l1.036,0.208l1.461,0.208l1.253,-0.208l1.035,-0.208l1.044,-0.625l0.626,-0.625l0.626,-0.834l0.418,-1.041l0.209,-1.042l-0,-4.166l-1.253,1.25l-1.252,0.833l-1.245,0.208l-1.461,0.209l-1.461,-0.209l-1.244,-0.208l-1.044,-0.625l-0.835,-0.625l-0.626,-0.833l-0.618,-0.833l-0.627,-1.875l-0.417,-2.083l-0,-4.583l0.417,-2.083l0.627,-1.876l0.618,-0.833l0.626,-0.624l0.835,-0.834l1.044,-0.416l1.244,-0.417l2.922,-0l1.245,0.417l1.461,0.833l1.044,1.041l-0,-2.083l2.705,0l0,21.04l-0.417,1.458l-0.627,1.459l-1.043,1.249l-1.036,0.834l-1.461,0.833l-1.453,0.417Zm-1.253,-25.207l-1.461,0.209l-1.035,0.416l-0.835,0.834l-0.627,0.833l-0.417,1.041l-0.209,1.25l-0.209,2.5l0.209,2.708l0.209,1.042l0.417,1.041l0.627,1.042l0.835,0.625l1.035,0.416l1.461,0.209l1.253,-0.209l1.035,-0.416l0.835,-0.625l0.627,-1.042l0.417,-1.041l0.209,-1.042l0.209,-2.708l-0.209,-2.5l-0.209,-1.25l-0.417,-1.041l-0.627,-0.833l-0.835,-0.834l-1.035,-0.416l-1.253,-0.209Z" style="fill:#0061a1;fill-rule:nonzero;"/><path d="M15.413,49.993l6.457,0l14.58,-45.201l-7.499,-4.792l-10.413,36.869l-9.998,-34.369l-8.54,0l15.413,47.493Z" style="fill:#0061a1;fill-rule:nonzero;"/><path d="M108.932,34.161l-0,-8.332l-0.418,-1.875l-0.209,-1.459l-0.618,-1.666l-0.626,-1.458l-0.835,-1.25l-1.044,-1.25l-1.035,-1.25l-1.044,-1.042l-1.252,-0.833l-1.453,-0.833l-1.253,-0.629l-1.461,-0.415l-1.662,-0.415l-1.461,-0.208l-1.662,0l-2.714,0.208l-2.496,0.623l-1.253,0.423l-1.244,0.621l-1.253,0.834l-1.25,1.041l-1.041,1.042l-0.833,1.25l-1.042,1.25l-0.833,1.666l-0.625,1.667l-0.624,1.874l-0.417,2.084l-0.209,2.291l-7.497,0l-0,-1.875l-0.209,-1.875l-0.417,-1.666l-0.416,-1.459l-0.625,-1.457l-0.625,-1.459l-0.833,-1.25l-1.041,-1.25l-1.041,-1.041l-1.042,-0.833l-1.25,-0.834l-1.25,-0.621l-1.458,-0.631l-1.458,-0.415l-1.458,-0.208l-1.666,0l-2.707,0.208l-2.916,0.83l-1.458,0.629l-1.25,0.625l-1.25,1.041l-1.25,1.042l-1.041,1.25l-1.041,1.458l-0.833,1.666l-0.834,1.667l-0.624,2.083l-0.417,2.292l-0.209,2.5l-0.208,2.708l0.208,2.916l0.209,2.5l0.625,2.292l0.624,2.083l0.833,1.874l0.834,1.667l1.25,1.25l1.041,1.25l1.458,1.042l1.249,0.833l1.459,0.624l1.458,0.626l1.458,0.416l1.666,0.208l2.916,0.209l1.874,-0l2.084,-0.417l1.874,-0.416l1.666,-0.626l1.875,-0.833l1.666,-1.041l1.458,-1.459l1.666,-1.457l-5.831,-4.792l-1.875,1.459l-2.083,1.25l-2.291,0.624l-2.291,0.417l-1.875,-0.208l-1.667,-0.417l-1.665,-0.833l-1.458,-1.042l-1.042,-1.25l-0.833,-1.666l-0.417,-2.083l-0.208,-2.084l30.409,-0l0.209,2.291l0.417,2.292l0.625,1.875l0.833,1.875l0.833,1.459l0.833,1.457l1.25,1.25l1.041,1.042l1.251,0.833l1.453,0.625l1.252,0.625l1.462,0.417l2.705,0.624l2.914,0.209l1.879,-0l2.079,-0.417l1.879,-0.416l1.662,-0.626l1.879,-0.833l1.661,-1.041l1.462,-1.459l1.453,-1.457l-5.62,-4.792l-1.879,1.459l-2.079,1.25l-2.288,0.624l-2.296,0.417l-1.871,-0.208l-1.879,-0.417l-1.453,-0.833l-1.461,-1.042l-1.044,-1.25l-0.826,-1.666l-0.418,-2.083l-0.209,-2.084l24.158,-0Zm-45.821,-6.458l-16.455,0l0.208,-2.083l0.417,-1.875l0.833,-1.667l1.042,-1.249l1.041,-0.834l1.458,-0.833l1.458,-0.416l1.667,-0.208l1.665,0.208l1.667,0.416l1.249,0.833l1.25,0.834l1.042,1.249l0.624,1.667l0.626,1.875l0.208,2.083Zm38.113,0l-16.45,0l0.209,-2.083l0.418,-1.875l0.826,-1.667l0.835,-1.249l1.253,-0.834l1.453,-0.833l1.461,-0.416l1.67,-0.208l1.662,0.208l1.461,0.416l1.453,0.833l1.253,0.834l0.835,1.249l0.835,1.667l0.409,1.875l0.417,2.083Z" style="fill:#0061a1;fill-rule:nonzero;"/><path d="M117.265,50.618l7.707,-0l0,-23.123l0.209,-1.875l0.418,-1.666l0.835,-1.459l0.826,-1.25l1.253,-1.041l1.252,-0.625l1.453,-0.417l1.67,-0.208l1.453,0.208l1.462,0.417l1.461,0.625l1.035,1.041l0.835,1.25l0.835,1.459l0.418,1.666l0.209,1.875l-0,23.123l7.707,-0l-0,-27.498l-0.209,-1.458l-0.417,-1.458l-1.253,-2.5l-0.626,-1.042l-0.835,-1.041l-0.827,-1.042l-2.087,-1.458l-2.08,-1.044l-2.296,-0.623l-2.288,-0.208l-1.461,0l-1.453,0.208l-1.461,0.415l-1.453,0.415l-1.044,0.837l-1.253,0.625l-1.035,1.042l-1.044,1.041l-0.209,0l0,-4.168l-7.707,0l0,38.957Z" style="fill:#0061a1;fill-rule:nonzero;"/><path d="M157.672,50.618l7.707,-0l0,-11.249l6.246,-6.874l10.413,18.123l9.795,-0l-15.206,-23.748l13.327,-15.209l-9.369,0l-14.997,18.334l-0.209,-0l0,-28.126l-7.707,-0l0,48.749Z" style="fill:#0061a1;fill-rule:nonzero;"/><path d="M224.115,34.161l-0,-8.332l-0.209,-1.875l-0.417,-1.459l-0.627,-1.666l-0.618,-1.458l-0.835,-1.25l-2.087,-2.5l-1.036,-1.042l-2.505,-1.666l-1.453,-0.629l-1.461,-0.415l-1.453,-0.415l-1.67,-0.208l-1.67,0l-2.706,0.208l-1.452,0.415l-1.462,0.415l-1.252,0.629l-1.453,0.625l-2.505,2.083l-1.036,1.25l-1.043,1.458l-0.836,1.666l-0.835,1.667l-0.417,2.083l-0.618,2.292l-0.209,2.5l-0.208,2.708l0.208,2.916l0.209,2.5l0.618,2.292l0.626,2.083l0.835,1.874l1.044,1.667l1.044,1.25l1.244,1.25l1.253,1.042l1.252,0.833l1.453,0.624l1.461,0.626l1.453,0.416l1.67,0.208l2.915,0.209l2.087,-0l1.871,-0.417l1.878,-0.416l1.871,-0.626l1.67,-0.833l1.662,-1.041l1.67,-1.459l1.453,-1.457l-5.829,-4.792l-1.879,1.459l-2.079,1.25l-2.087,0.624l-2.288,0.417l-2.08,-0.208l-1.67,-0.417l-1.661,-0.833l-1.253,-1.042l-1.252,-1.25l-0.836,-1.666l-0.409,-2.083l-0.208,-2.084l24.157,-0Zm-7.29,-6.458l-16.45,0l0.2,-2.083l0.627,-1.875l0.626,-1.667l1.044,-1.249l1.252,-0.834l1.245,-0.833l1.67,-0.416l1.661,-0.208l1.67,0.208l1.453,0.416l1.462,0.833l1.043,0.834l1.036,1.249l0.835,1.667l0.417,1.875l0.209,2.083Z" style="fill:#0061a1;fill-rule:nonzero;"/><path d="M231.822,50.618l7.916,-0l0,-25.414l0.626,-1.667l0.627,-1.459l1.035,-1.041l1.044,-0.833l1.461,-0.625l1.244,-0.417l1.462,-0.208l1.453,0.208l1.252,0.417l1.044,0.416l1.453,1.042l5.628,-6.874l-1.879,-1.25l-1.87,-0.836l-2.08,-0.623l-2.296,-0.208l-1.453,0l-1.461,0.208l-1.461,0.415l-1.245,0.415l-1.252,0.837l-1.253,0.625l-1.035,1.042l-1.044,1.041l0,-4.168l-7.916,0l0,38.957Z" style="fill:#0061a1;fill-rule:nonzero;"/></g></g></svg>